<svg width="42" height="60" viewBox="0 0 42 60" fill="none" xmlns="http://www.w3.org/2000/svg">
  <path d="M36.364 0H5.16474C2.31233 0 0 2.31311 0 5.16647V53.7442C0 56.5975 2.31233 58.9106 5.16474 58.9106H36.364C39.2164 58.9106 41.5288 56.5975 41.5288 53.7442V5.16647C41.5288 2.31311 39.2164 0 36.364 0Z" fill="#BAD8FD"/>
  <rect x="2.79333" y="18.6223" width="32.589" height="1.86223" rx="0.931114" fill="#5B64A5"/>
  <rect x="36.3134" y="18.6223" width="1.86223" height="1.86223" rx="0.931114" fill="#5B64A5"/>
  <rect x="10.2422" y="23.2778" width="27.9334" height="1.86223" rx="0.931114" fill="#5B64A5"/>
  <rect x="2.79333" y="23.2778" width="6.5178" height="1.86223" rx="0.931114" fill="#5B64A5"/>
  <rect x="2.79333" y="27.9334" width="18.6223" height="1.86223" rx="0.931114" fill="#5B64A5"/>
  <path d="M20.4697 9.10955C17.5128 9.10955 14.556 9.10955 11.6035 9.10955C10.7083 9.10955 10.6868 9.13538 10.6825 10.0352C10.6825 10.8963 10.6825 11.7617 10.6825 12.6227C10.6825 13.3116 10.7556 13.3891 11.44 13.3891C15.15 13.3891 18.8557 13.3891 22.5657 13.3891C23.2844 13.3891 23.5986 13.6819 23.59 14.276C23.5814 14.7711 23.3103 14.9993 22.8583 15.0338C22.5312 15.0596 22.1998 15.0424 21.8684 15.0424C18.2316 15.0381 14.5991 15.0381 10.9622 15.0252C9.91636 15.0252 9.09 14.0909 9.05557 13.1954C9.00823 11.8736 9.02113 10.5519 9.04696 9.2301C9.05987 8.48957 9.80016 7.71891 10.6222 7.53808C10.9063 7.4735 11.2032 7.46059 11.4916 7.45628C17.4956 7.45197 23.4996 7.45628 29.5036 7.45628C31.0746 7.45628 31.9913 8.3518 32.0042 9.91466C32.0128 10.8317 32.0128 11.7531 32.0042 12.6701C31.9913 14.0952 31.0531 15.0338 29.6371 15.0424C28.6988 15.0467 27.7648 15.051 26.8266 15.0424C26.1379 15.0338 25.8926 14.8013 25.8969 14.2028C25.8969 13.6776 26.2068 13.402 26.8266 13.3934C27.7261 13.3848 28.6256 13.3934 29.5251 13.3934C30.2267 13.3934 30.3472 13.2686 30.3472 12.5452C30.3472 11.6842 30.3472 10.8188 30.3472 9.95771C30.3472 9.29468 30.1621 9.11385 29.495 9.11385C26.4823 9.11385 23.4738 9.11385 20.461 9.11385L20.4697 9.10955Z" fill="#5B64A5"/>
  <path d="M34.1092 35.6617C34.1886 35.763 34.2627 35.8696 34.3315 35.9762C35.1625 37.3727 35.4959 38.9077 35.3742 40.5173C35.1096 44.0511 32.4261 47.0786 28.938 47.7075C26.3075 48.1819 24.0368 47.4836 22.1261 45.7034C20.8611 44.5255 20.0989 43.0278 19.7919 41.2689C19.4214 39.1369 19.8766 37.2128 21.0622 35.4592C22.3272 33.5884 24.0686 32.8049 26.4239 32.1706C27.3025 32.064 28.287 32.1493 28.6787 32.2079C29.5732 32.3411 30.4253 32.6556 31.1928 33.1406C32.0556 33.6843 33.1988 34.5318 34.1145 35.6617H34.1092Z" fill="#F0F6F9"/>
  <path d="M30.8173 37.8212C30.8597 37.8692 30.8968 37.9225 30.9285 37.9811C31.3417 38.6792 31.5112 39.4466 31.4529 40.2512C31.3205 42.0205 29.9751 43.5339 28.2323 43.8483C26.9186 44.0828 25.7797 43.7364 24.8262 42.8464C24.1959 42.2603 23.8092 41.5089 23.6608 40.6296C23.4754 39.5638 23.7032 38.5993 24.2965 37.7253C24.9269 36.7874 25.8009 36.3984 26.9769 36.0787C27.4165 36.0254 27.9092 36.068 28.1052 36.1C28.5501 36.1639 28.9792 36.3238 29.3606 36.5636C29.7897 36.8354 30.3617 37.2564 30.8226 37.8212H30.8173Z" fill="#EEAA21"/>
  <path d="M25.711 41.9534C25.8035 40.8778 25.7521 39.7853 25.562 38.7267C25.8548 39.4796 26.3788 40.1193 27.0261 40.5212C27.1494 40.6005 27.2932 40.6684 27.432 40.6401C27.6323 40.5948 27.7505 40.3627 27.8172 40.1476C27.9303 39.7683 27.9662 39.3607 27.92 38.9645C28.2436 39.0381 28.5981 38.9249 28.8396 38.6758" stroke="#F0F6F9" stroke-width="1.03203" stroke-miterlimit="10"/>
  <path d="M27.955 9.77761H13.0247C12.4542 9.77761 11.9917 10.2402 11.9917 10.8109V11.56C11.9917 12.1307 12.4542 12.5933 13.0247 12.5933H27.955C28.5255 12.5933 28.988 12.1307 28.988 11.56V10.8109C28.988 10.2402 28.5255 9.77761 27.955 9.77761Z" fill="#5385C3"/>
  </svg>
  