<svg
  width="88"
  height="88"
  viewBox="0 0 88 88"
  fill="none"
  xmlns="http://www.w3.org/2000/svg"
>
  <path
    d="M24.616 60.6895H6.10817C2.73472 60.6895 0 63.4238 0 66.7969V81.8924C0 85.2654 2.73472 87.9998 6.10817 87.9998H24.616C27.9894 87.9998 30.7241 85.2654 30.7241 81.8924V66.7969C30.7241 63.4238 27.9894 60.6895 24.616 60.6895Z"
    fill="#BAD8FD"
  />
  <path
    d="M61.4277 64.1016H37.5724C35.0471 64.1016 33 66.0862 33 68.5343V82.4275C33 84.8756 35.0471 86.8602 37.5724 86.8602H61.4277C63.9529 86.8602 66 84.8756 66 82.4275V68.5343C66 66.0862 63.9529 64.1016 61.4277 64.1016Z"
    fill="#D8C9EE"
  />
  <path
    d="M25.3605 20.8613H13.3307C11.625 20.8613 10.2422 22.1577 10.2422 23.7568V35.0348C10.2422 36.6339 11.625 37.9303 13.3307 37.9303H25.3605C27.0663 37.9303 28.4491 36.6339 28.4491 35.0348V23.7568C28.4491 22.1577 27.0663 20.8613 25.3605 20.8613Z"
    fill="#EACDF4"
  />
  <path
    d="M56.0653 33.3789H34.9677C33.2521 33.3789 31.8613 34.7697 31.8613 36.4853V57.5829C31.8613 59.2985 33.2521 60.6893 34.9677 60.6893H56.0653C57.7809 60.6893 59.1717 59.2985 59.1717 57.5829V36.4853C59.1717 34.7697 57.7809 33.3789 56.0653 33.3789Z"
    fill="#5B64A5"
  />
  <path
    d="M25.4051 41.3438H3.04314C1.36246 41.3438 0 42.7242 0 44.4272V54.1914C0 55.8943 1.36246 57.2748 3.04314 57.2748H25.4051C27.0858 57.2748 28.4483 55.8943 28.4483 54.1914V44.4272C28.4483 42.7242 27.0858 41.3438 25.4051 41.3438Z"
    fill="#C5C1E6"
  />
  <path
    d="M46.2838 55.0001C46.1238 54.7829 45.9684 54.5605 45.8084 54.3432C45.5166 53.945 45.2247 53.5415 44.9329 53.1432C44.754 52.9001 44.5752 52.657 44.401 52.4139C44.1751 52.1036 43.9491 51.7932 43.7232 51.4777C43.5302 51.2139 43.3372 50.9501 43.1442 50.6863C42.8288 50.2519 42.5135 49.8122 42.1981 49.3725C42.0239 49.1294 41.8451 48.8863 41.6662 48.6484C41.5862 48.5398 41.5061 48.426 41.4261 48.3174C41.3932 48.2708 41.412 48.2243 41.4073 48.1777C41.4073 48.1363 41.412 48.095 41.412 48.0536C41.412 47.9708 41.412 47.8881 41.412 47.8053C41.412 47.6967 41.412 47.5881 41.4167 47.4794C41.4167 47.3708 41.4167 47.2622 41.4261 47.1536C41.4261 47.0967 41.4308 47.0346 41.4356 46.9674C41.4544 46.9674 41.4732 46.9674 41.492 46.9674C41.5956 46.9725 41.7038 46.9881 41.8074 46.9881C41.9439 46.9932 42.0757 46.9932 42.2122 46.9984C42.4052 46.9984 42.5982 46.9984 42.7959 46.9984C42.9136 46.9984 43.0265 46.9881 43.1442 46.9725C43.2901 46.957 43.4313 46.9312 43.5773 46.9105C43.8079 46.8743 44.0338 46.8122 44.2551 46.7294C44.6316 46.5846 44.9612 46.3674 45.2389 46.0519C45.493 45.757 45.6625 45.4105 45.7802 45.0277C45.8319 44.8622 45.8649 44.6915 45.9026 44.5208C45.9026 44.5157 45.9026 44.5053 45.9026 44.4898C44.2833 44.4794 42.6688 44.4691 41.0496 44.4588C41.0496 44.4484 41.0496 44.4381 41.059 44.4329C41.2943 43.9984 41.5344 43.5588 41.7698 43.1243C41.7886 43.0881 41.8027 43.0312 41.8309 43.0157C41.8686 42.995 41.9204 43.0053 41.9627 43.0053C42.1228 43.0053 42.2781 43.0053 42.4382 43.0053C42.6029 43.0053 42.7724 43.0105 42.9371 43.0157C43.0501 43.0157 43.1677 43.0157 43.2807 43.0208C43.4266 43.0208 43.5773 43.0208 43.7232 43.026C43.935 43.026 44.1468 43.026 44.3539 43.0312C44.5281 43.0312 44.707 43.0363 44.8811 43.0415C44.9659 43.0415 45.0459 43.0415 45.1306 43.0467C45.3095 43.0467 45.4883 43.0519 45.6719 43.057C45.6813 43.057 45.6907 43.057 45.7049 43.057C45.6954 43.0363 45.6907 43.0157 45.6813 42.995C45.4978 42.6174 45.2295 42.3329 44.8858 42.1312C44.7211 42.0329 44.5422 41.9553 44.3633 41.8984C44.2127 41.8519 44.0621 41.8157 43.9115 41.7794C43.7844 41.7484 43.662 41.7277 43.5349 41.707C43.4643 41.6967 43.389 41.6915 43.3137 41.6812C43.2148 41.6708 43.1207 41.6605 43.0218 41.6501C42.9701 41.6501 42.9183 41.645 42.8665 41.6398C42.7818 41.6398 42.697 41.6294 42.6123 41.6243C42.5888 41.6243 42.5699 41.6243 42.5464 41.6243C42.2122 41.6243 41.8733 41.6191 41.5391 41.6191C41.4497 41.6191 41.3555 41.6191 41.2661 41.6243C41.172 41.6243 41.0731 41.6346 40.979 41.6346C40.9742 41.6346 40.9696 41.6294 40.9648 41.6243C41.2096 41.226 41.4544 40.8277 41.6944 40.4346C41.7321 40.3674 41.7745 40.3053 41.8121 40.2381C41.8215 40.2225 41.8404 40.2122 41.8592 40.2122C42.0522 40.2122 42.2405 40.2122 42.4334 40.2122C44.1845 40.2122 45.9355 40.2122 47.6865 40.207C48.4679 40.207 49.2493 40.207 50.0307 40.207C50.0401 40.207 50.0495 40.207 50.0683 40.207C50.0589 40.2277 50.0495 40.2432 50.0448 40.2588C49.8706 40.5588 49.6964 40.8536 49.5223 41.1536C49.4423 41.2932 49.3622 41.4277 49.2822 41.5674C49.2634 41.6036 49.2399 41.6191 49.1975 41.6191C48.4867 41.6191 47.776 41.6191 47.0652 41.6191C47.037 41.6191 47.0087 41.6191 46.9852 41.6191C46.9852 41.6191 46.9805 41.6191 46.9758 41.6191C46.9758 41.6191 46.9805 41.6191 46.9852 41.6243C47.1593 41.8208 47.3053 42.0432 47.4418 42.276C47.5218 42.4105 47.5877 42.5553 47.63 42.7053C47.663 42.8191 47.6912 42.9329 47.6959 43.0519C47.6959 43.0725 47.7007 43.0984 47.7054 43.1191C48.4914 43.1088 49.2728 43.0984 50.0683 43.0881C50.0259 43.1605 49.993 43.2225 49.9553 43.2794C49.7294 43.6674 49.4988 44.0501 49.2728 44.4381C49.254 44.4691 49.2304 44.4846 49.1975 44.4846C49.0327 44.4846 48.868 44.4846 48.7033 44.4898C48.5715 44.4898 48.4397 44.495 48.3079 44.495C48.1478 44.495 47.9925 44.495 47.8324 44.5053C47.7807 44.5053 47.7289 44.5105 47.6724 44.5157C47.663 44.557 47.6583 44.6088 47.6489 44.6553C47.6301 44.7536 47.6159 44.8467 47.5924 44.945C47.5218 45.2708 47.4041 45.5708 47.2488 45.8553C47.004 46.3001 46.6886 46.6674 46.3074 46.9725C45.9543 47.257 45.5683 47.4846 45.1588 47.6501C45.0176 47.707 44.8717 47.7536 44.7258 47.8053C44.6128 47.8415 44.4999 47.8777 44.3869 47.9088C44.2316 47.9501 44.0762 47.9812 43.9209 48.0174C43.7985 48.0432 43.6761 48.0588 43.5537 48.0794C43.5396 48.0794 43.5302 48.0794 43.5067 48.0794C43.5208 48.1001 43.5255 48.1105 43.5349 48.1208C43.7656 48.4467 43.9962 48.7777 44.2315 49.1036C44.481 49.4553 44.7305 49.8019 44.98 50.1484C45.1824 50.4329 45.3848 50.7174 45.5872 51.0019C45.8131 51.3174 46.0391 51.6381 46.2603 51.9536C46.5145 52.3105 46.7639 52.6622 47.0181 53.0191C47.2252 53.3088 47.4323 53.5932 47.6347 53.8829C47.8466 54.1777 48.0537 54.4725 48.2655 54.7674C48.3032 54.8243 48.3455 54.8812 48.3832 54.9329C48.3926 54.9432 48.3926 54.9588 48.3973 54.9691H48.289C48.289 54.9691 48.2796 54.9484 48.2702 54.9484C48.2467 54.9484 48.2231 54.9381 48.1996 54.9381C47.9548 54.9381 47.7101 54.9381 47.4653 54.9381C47.4559 54.9381 47.4465 54.9381 47.4371 54.9381V54.9484C47.4512 54.9484 47.4606 54.9484 47.4747 54.9484C47.7148 54.9484 47.9595 54.9484 48.1996 54.9484C48.2137 54.9484 48.2231 54.9588 48.2373 54.9639H46.265L46.2838 55.0001Z"
    fill="#FFD47C"
  />
  <g opacity="0.15">
    <path
      d="M16.1619 79.5982C16.0396 79.4452 15.9173 79.2872 15.795 79.1342C15.5707 78.8487 15.3414 78.5683 15.1171 78.2828C14.9795 78.1094 14.8419 77.9412 14.7043 77.7679C14.531 77.5486 14.3526 77.3294 14.1793 77.1051C14.0315 76.9164 13.8786 76.7329 13.7308 76.5442C13.4862 76.2332 13.2415 75.9273 12.9918 75.6163C12.8542 75.443 12.7166 75.2747 12.579 75.1014C12.5178 75.0249 12.4566 74.9433 12.3904 74.8669C12.3649 74.8363 12.3802 74.8006 12.3751 74.7649C12.3751 74.7343 12.3751 74.7088 12.3751 74.6782C12.3751 74.6171 12.3751 74.561 12.3751 74.4998C12.3751 74.4233 12.3751 74.3468 12.3802 74.2704C12.3802 74.1939 12.3802 74.1174 12.3853 74.0409C12.3853 74.0001 12.3904 73.9594 12.3955 73.9084C12.4108 73.9084 12.4261 73.9084 12.4414 73.9084C12.5229 73.9135 12.6045 73.9237 12.686 73.9237C12.793 73.9237 12.895 73.9288 13.002 73.9288C13.1549 73.9288 13.3027 73.9288 13.4556 73.9288C13.5473 73.9288 13.634 73.9186 13.7257 73.9135C13.8378 73.9033 13.95 73.888 14.0621 73.8727C14.2405 73.8472 14.4189 73.8064 14.5871 73.7452C14.8776 73.6433 15.1375 73.4903 15.3516 73.266C15.5503 73.0569 15.6828 72.8122 15.7695 72.542C15.8103 72.4247 15.8357 72.3024 15.8663 72.1851C15.8663 72.18 15.8663 72.1749 15.8663 72.1647C14.6074 72.1596 13.3537 72.1494 12.0897 72.1443C12.0897 72.1341 12.0897 72.129 12.0948 72.129C12.2783 71.818 12.4617 71.5121 12.6503 71.2011C12.6656 71.1756 12.6758 71.1349 12.7013 71.1247C12.7319 71.1094 12.7675 71.1196 12.8032 71.1196C12.9255 71.1196 13.0479 71.1196 13.1702 71.1196C13.2976 71.1196 13.4301 71.1196 13.5575 71.1247C13.6493 71.1247 13.7359 71.1247 13.8277 71.1247C13.9449 71.1247 14.057 71.1247 14.1742 71.1247C14.3373 71.1247 14.5004 71.1247 14.6686 71.1298C14.8062 71.1298 14.9438 71.1298 15.0814 71.1349C15.1477 71.1349 15.2089 71.1349 15.2751 71.1349C15.4127 71.1349 15.5554 71.1349 15.6931 71.14C15.6981 71.14 15.7083 71.14 15.7185 71.14C15.7134 71.1247 15.7083 71.1094 15.6981 71.0992C15.5554 70.8341 15.3465 70.6301 15.0814 70.4874C14.954 70.416 14.8164 70.3599 14.6737 70.3242C14.5565 70.2936 14.4393 70.263 14.322 70.2426C14.2252 70.2222 14.1284 70.2069 14.0264 70.1917C13.9704 70.1815 13.9143 70.1815 13.8582 70.1764C13.7818 70.1713 13.7053 70.1611 13.6289 70.156C13.5881 70.156 13.5473 70.156 13.5066 70.1509C13.4403 70.1509 13.374 70.1458 13.3078 70.1407C13.2925 70.1407 13.2721 70.1407 13.2568 70.1407C12.9969 70.1407 12.737 70.1407 12.4719 70.1356C12.4006 70.1356 12.3292 70.1356 12.2579 70.1407C12.1814 70.1407 12.1101 70.1458 12.0336 70.1509C12.0336 70.1509 12.0234 70.1509 12.0234 70.1458C12.212 69.8654 12.4006 69.5849 12.5943 69.3045C12.6248 69.2587 12.6554 69.2128 12.686 69.1669C12.6911 69.1567 12.7115 69.1465 12.7217 69.1465C12.8695 69.1465 13.0173 69.1465 13.1702 69.1465C14.531 69.1465 15.8918 69.1465 17.2577 69.1465C17.8642 69.1465 18.4707 69.1465 19.0823 69.1465C19.0925 69.1465 19.0976 69.1465 19.1129 69.1465C19.1027 69.1618 19.0976 69.172 19.0925 69.1822C18.96 69.3912 18.8224 69.6053 18.6899 69.8144C18.6287 69.9112 18.5625 70.0081 18.5064 70.105C18.4911 70.1305 18.4707 70.1407 18.4401 70.1407C17.8846 70.1407 17.3342 70.1407 16.7786 70.1407C16.7582 70.1407 16.7379 70.1407 16.7124 70.1407C16.7124 70.1407 16.7124 70.1407 16.7073 70.1407C16.7073 70.1407 16.7073 70.1407 16.7124 70.1407C16.85 70.2783 16.9621 70.4364 17.0641 70.5995C17.1252 70.6964 17.1762 70.7984 17.2119 70.9054C17.2373 70.987 17.2628 71.0635 17.2628 71.1501C17.2628 71.1654 17.2628 71.1807 17.273 71.2011C17.8846 71.196 18.4911 71.1858 19.1129 71.1807C19.0823 71.2317 19.0518 71.2725 19.0263 71.3184C18.8479 71.5937 18.6746 71.8639 18.4962 72.1392C18.4809 72.1596 18.4656 72.1698 18.4401 72.1698C18.3127 72.1698 18.1853 72.1698 18.0579 72.1749C17.956 72.1749 17.854 72.1749 17.7521 72.18C17.6298 72.18 17.5075 72.18 17.3801 72.1851C17.3393 72.1851 17.2985 72.1902 17.2577 72.1953C17.2526 72.2259 17.2475 72.2616 17.2373 72.2922C17.222 72.3585 17.2118 72.4298 17.1965 72.4961C17.1405 72.7255 17.0539 72.9397 16.9315 73.1436C16.743 73.4597 16.4932 73.7197 16.1976 73.9339C15.9224 74.1378 15.6217 74.2959 15.3006 74.4131C15.1885 74.4539 15.0763 74.4896 14.9642 74.5202C14.8776 74.5457 14.7909 74.5712 14.6992 74.5916C14.5769 74.6221 14.4596 74.6425 14.3373 74.668C14.2456 74.6833 14.1487 74.6986 14.0519 74.7139C14.0417 74.7139 14.0315 74.7139 14.0162 74.7139C14.0264 74.7292 14.0315 74.7343 14.0366 74.7445C14.215 74.9739 14.3985 75.2085 14.5769 75.4379C14.7706 75.6877 14.9642 75.9324 15.1579 76.1772C15.3159 76.376 15.4739 76.5799 15.6268 76.7788C15.8001 77.0031 15.9784 77.2274 16.1517 77.4518C16.3454 77.7016 16.5442 77.9514 16.7379 78.2063C16.8959 78.4102 17.059 78.6142 17.217 78.8181C17.38 79.0272 17.5431 79.2362 17.7062 79.4452C17.7368 79.486 17.7674 79.5217 17.798 79.5625C17.803 79.5727 17.8082 79.5829 17.8082 79.588H17.7266C17.7266 79.588 17.7164 79.5727 17.7113 79.5727C17.696 79.5727 17.6756 79.5676 17.6553 79.5676C17.4667 79.5676 17.273 79.5676 17.0844 79.5676C17.0793 79.5676 17.0692 79.5676 17.0641 79.5676C17.0641 79.5676 17.0641 79.5727 17.0641 79.5778C17.0743 79.5778 17.0844 79.5778 17.0946 79.5778C17.2832 79.5778 17.4718 79.5778 17.6604 79.5778C17.6706 79.5778 17.6807 79.5829 17.6909 79.588H16.1568L16.1619 79.5982Z"
      fill="#3E1E1E"
    />
  </g>
  <g opacity="0.15">
    <path
      d="M48.4935 78.6032C48.3916 78.4757 48.2947 78.3534 48.1928 78.2259C48.0093 77.9965 47.8258 77.767 47.6424 77.5376C47.5302 77.4 47.4181 77.2572 47.306 77.1196C47.1632 76.9411 47.0206 76.7627 46.8779 76.5842C46.7555 76.4313 46.6332 76.2834 46.516 76.1305C46.3172 75.8806 46.1184 75.6308 45.9197 75.381C45.8075 75.2433 45.6954 75.1057 45.5833 74.9629C45.5323 74.9018 45.4813 74.8355 45.4304 74.7743C45.41 74.7488 45.4202 74.7182 45.4202 74.6927C45.4202 74.6672 45.4202 74.6468 45.4202 74.6213C45.4202 74.5755 45.4202 74.5245 45.4202 74.4786C45.4202 74.4174 45.4202 74.3562 45.4202 74.295C45.4202 74.2339 45.4202 74.1727 45.4202 74.1115C45.4202 74.0758 45.4202 74.0452 45.4253 74.0044C45.4355 74.0044 45.4508 74.0044 45.461 74.0044C45.5272 74.0044 45.5935 74.0146 45.6597 74.0197C45.7464 74.0197 45.8279 74.0197 45.9146 74.0197C46.0369 74.0197 46.1592 74.0197 46.2815 74.0197C46.3529 74.0197 46.4293 74.0146 46.5007 74.0044C46.5924 73.9942 46.6842 73.984 46.7759 73.9688C46.9237 73.9484 47.0613 73.9127 47.204 73.8668C47.4385 73.7852 47.6474 73.6577 47.8258 73.4793C47.9889 73.3111 48.0908 73.1122 48.1673 72.893C48.1979 72.7961 48.2183 72.6993 48.2438 72.6024C48.2438 72.6024 48.2438 72.5922 48.2438 72.5871C47.2244 72.582 46.2051 72.5769 45.1858 72.5718C45.1858 72.5667 45.1858 72.5616 45.1858 72.5565C45.3336 72.3067 45.4865 72.0569 45.6343 71.807C45.6496 71.7866 45.6546 71.7561 45.675 71.7459C45.7005 71.7357 45.7311 71.7459 45.7566 71.7459C45.8585 71.7459 45.9553 71.7459 46.0573 71.7459C46.1643 71.7459 46.2662 71.7459 46.3733 71.751C46.4446 71.751 46.516 71.751 46.5924 71.751C46.6841 71.751 46.781 71.751 46.8728 71.751C47.0053 71.751 47.1378 71.751 47.2703 71.751C47.3824 71.751 47.4945 71.751 47.6016 71.7561C47.6525 71.7561 47.7035 71.7561 47.7596 71.7561C47.8717 71.7561 47.9838 71.7561 48.101 71.7561C48.1061 71.7561 48.1112 71.7561 48.1214 71.7561C48.1163 71.7408 48.1112 71.7306 48.1061 71.7204C47.9889 71.5062 47.8207 71.3431 47.6067 71.2258C47.4996 71.1697 47.3926 71.1239 47.2754 71.0933C47.1836 71.0678 47.0868 71.0474 46.99 71.027C46.9135 71.0117 46.832 70.9964 46.7504 70.9862C46.7046 70.9811 46.6587 70.976 46.6128 70.9709C46.5517 70.9658 46.4905 70.9607 46.4293 70.9556C46.3988 70.9556 46.3631 70.9556 46.3325 70.9556C46.2815 70.9556 46.2255 70.9505 46.1745 70.9454C46.1592 70.9454 46.149 70.9454 46.1337 70.9454C45.9248 70.9454 45.7107 70.9454 45.5017 70.9454C45.4457 70.9454 45.3896 70.9454 45.3284 70.9454C45.2673 70.9454 45.2061 70.9454 45.145 70.9505C45.145 70.9505 45.1399 70.9505 45.1348 70.9454C45.2877 70.716 45.4406 70.4917 45.5935 70.2622C45.619 70.2265 45.6444 70.1857 45.6699 70.1501C45.675 70.1399 45.6903 70.1348 45.7005 70.1348C45.8228 70.1348 45.94 70.1348 46.0624 70.1348C47.1632 70.1348 48.2692 70.1348 49.3701 70.1348C49.8645 70.1348 50.3538 70.1348 50.8482 70.1348C50.8533 70.1348 50.8634 70.1348 50.8736 70.1348C50.8685 70.145 50.8635 70.1552 50.8584 70.1654C50.7513 70.3387 50.6392 70.5069 50.5322 70.6803C50.4812 70.7568 50.4302 70.8383 50.3843 70.9148C50.369 70.9352 50.3589 70.9454 50.3334 70.9454C49.8849 70.9454 49.4364 70.9454 48.9879 70.9454C48.9726 70.9454 48.9522 70.9454 48.9369 70.9454C48.9369 70.9454 48.9369 70.9454 48.9318 70.9454C48.9318 70.9454 48.9318 70.9454 48.9369 70.9454C49.049 71.0576 49.1408 71.185 49.2223 71.3176C49.2733 71.3941 49.314 71.4756 49.3395 71.5623C49.3599 71.6286 49.3803 71.6898 49.3803 71.7612C49.3803 71.7764 49.3803 71.7866 49.3854 71.8019C49.8798 71.7968 50.3742 71.7917 50.8736 71.7866C50.8481 71.8274 50.8227 71.8631 50.8023 71.8988C50.6596 72.118 50.5169 72.3424 50.3742 72.5616C50.364 72.582 50.3487 72.5871 50.3283 72.5871C50.2263 72.5871 50.1193 72.5871 50.0174 72.5871C49.9358 72.5871 49.8492 72.5871 49.7677 72.5871C49.6657 72.5871 49.5689 72.5871 49.4669 72.5871C49.4364 72.5871 49.4007 72.5871 49.365 72.5922C49.365 72.6177 49.3548 72.6432 49.3497 72.6738C49.3395 72.7298 49.3293 72.7859 49.314 72.842C49.2682 73.0255 49.1968 73.204 49.1 73.3671C48.9471 73.6221 48.7483 73.8311 48.5088 74.0095C48.2845 74.1727 48.045 74.3001 47.785 74.397C47.6933 74.4327 47.6016 74.4582 47.5098 74.4837C47.4385 74.5041 47.3671 74.5245 47.2958 74.5449C47.1989 74.5653 47.1021 74.5857 47.0053 74.6061C46.9288 74.6213 46.8524 74.6315 46.7759 74.6417C46.7657 74.6417 46.7606 74.6417 46.7453 74.6417C46.7555 74.6519 46.7606 74.657 46.7657 74.6672C46.9135 74.8559 47.0562 75.0445 47.204 75.228C47.362 75.4269 47.52 75.6257 47.6729 75.8297C47.8003 75.9928 47.9278 76.156 48.0552 76.3191C48.1979 76.5026 48.3406 76.6811 48.4782 76.8646C48.6362 77.0686 48.7942 77.2725 48.9573 77.4764C49.0847 77.6396 49.2172 77.8078 49.3446 77.971C49.4771 78.1392 49.6097 78.3075 49.7422 78.4757C49.7677 78.5063 49.7931 78.542 49.8135 78.5726C49.8135 78.5777 49.8186 78.5879 49.8237 78.593H49.7575C49.7575 78.593 49.7524 78.5828 49.7473 78.5777C49.732 78.5777 49.7167 78.5777 49.7014 78.5777C49.5485 78.5777 49.3905 78.5777 49.2376 78.5777C49.2325 78.5777 49.2274 78.5777 49.2223 78.5777C49.2223 78.5777 49.2223 78.5777 49.2223 78.5828C49.2325 78.5828 49.2376 78.5828 49.2478 78.5828C49.4007 78.5828 49.5536 78.5828 49.7065 78.5828C49.7167 78.5828 49.7218 78.5879 49.732 78.593H48.4884L48.4935 78.6032Z"
      fill="#3E1E1E"
    />
  </g>
  <g opacity="0.15">
    <path
      d="M15.0468 54.5495C14.9296 54.4016 14.8124 54.2538 14.6952 54.1059C14.4811 53.8357 14.2619 53.5655 14.0479 53.2953C13.9154 53.1321 13.7829 52.969 13.6503 52.8007C13.4821 52.5917 13.314 52.3776 13.1458 52.1685C13.0031 51.9901 12.8603 51.8116 12.7176 51.6332C12.4832 51.3375 12.2487 51.0418 12.0143 50.7461C11.8818 50.5829 11.7493 50.4198 11.6218 50.2566C11.5607 50.1802 11.5046 50.1088 11.4435 50.0323C11.418 50.0017 11.4333 49.966 11.4282 49.9354C11.4282 49.9099 11.4282 49.8794 11.4282 49.8539C11.4282 49.7978 11.4282 49.7417 11.4282 49.6856C11.4282 49.6142 11.4282 49.5378 11.4333 49.4664C11.4333 49.395 11.4333 49.3185 11.4384 49.2472C11.4384 49.2064 11.4384 49.1656 11.4486 49.1248C11.4639 49.1248 11.4741 49.1248 11.4894 49.1248C11.5658 49.1299 11.6473 49.135 11.7238 49.1401C11.8257 49.1401 11.9226 49.1401 12.0245 49.1452C12.1672 49.1452 12.315 49.1452 12.4577 49.1452C12.5443 49.1452 12.631 49.1401 12.7176 49.1299C12.8247 49.1197 12.9317 49.1044 13.0387 49.0891C13.212 49.0636 13.3802 49.0228 13.5433 48.9667C13.8236 48.8699 14.0683 48.722 14.2772 48.5079C14.4658 48.3091 14.5932 48.0745 14.6798 47.8145C14.7155 47.7023 14.741 47.5851 14.7716 47.4729C14.7716 47.4729 14.7716 47.4627 14.7716 47.4525C13.5688 47.4474 12.3711 47.4372 11.1632 47.4321C11.1632 47.4219 11.1632 47.4168 11.1683 47.4168C11.3466 47.1211 11.5199 46.8254 11.6983 46.5348C11.7136 46.5093 11.7238 46.4736 11.7442 46.4583C11.7697 46.443 11.8104 46.4532 11.841 46.4532C11.9582 46.4532 12.0754 46.4532 12.1927 46.4532C12.315 46.4532 12.4424 46.4532 12.5647 46.4583C12.6514 46.4583 12.738 46.4583 12.8196 46.4583C12.9317 46.4583 13.0387 46.4583 13.1508 46.4583C13.3088 46.4583 13.4669 46.4583 13.6198 46.4634C13.7523 46.4634 13.8797 46.4634 14.0122 46.4685C14.0733 46.4685 14.1345 46.4685 14.1957 46.4685C14.3282 46.4685 14.4607 46.4685 14.5983 46.4736C14.6034 46.4736 14.6085 46.4736 14.6187 46.4736C14.6136 46.4583 14.6085 46.443 14.5983 46.4328C14.4607 46.1779 14.2619 45.9842 14.0071 45.8465C13.8848 45.7803 13.7523 45.7293 13.6198 45.6885C13.5076 45.6579 13.3955 45.6324 13.2834 45.6069C13.1916 45.5865 13.0948 45.5712 13.0031 45.561C12.947 45.5508 12.896 45.5508 12.84 45.5457C12.7686 45.5406 12.6973 45.5304 12.6208 45.5253C12.58 45.5253 12.5444 45.5253 12.5036 45.5202C12.4424 45.5202 12.3762 45.5151 12.315 45.51C12.2997 45.51 12.2844 45.51 12.2691 45.51C12.0194 45.51 11.7697 45.51 11.5199 45.51C11.4537 45.51 11.3874 45.51 11.3161 45.51C11.2447 45.51 11.1734 45.5151 11.102 45.5151C11.102 45.5151 11.0918 45.5151 11.0918 45.51C11.2753 45.2398 11.4537 44.9747 11.6371 44.7045C11.6677 44.6586 11.6932 44.6178 11.7238 44.5719C11.7289 44.5617 11.7442 44.5566 11.7595 44.5566C11.9022 44.5566 12.0449 44.5566 12.1876 44.5566C13.4872 44.5566 14.792 44.5566 16.0916 44.5566C16.6727 44.5566 17.2537 44.5566 17.8347 44.5566C17.8449 44.5566 17.85 44.5566 17.8653 44.5566C17.8551 44.5719 17.85 44.5821 17.8449 44.5923C17.7175 44.7963 17.585 44.9951 17.4575 45.199C17.3964 45.2908 17.3403 45.3826 17.2792 45.4794C17.2639 45.5049 17.2486 45.5151 17.218 45.5151C16.688 45.5151 16.163 45.5151 15.6329 45.5151C15.6125 45.5151 15.5922 45.5151 15.5718 45.5151C15.5718 45.5151 15.5718 45.5151 15.5667 45.5151C15.5667 45.5151 15.5667 45.5151 15.5718 45.5151C15.6992 45.6477 15.8113 45.8006 15.9082 45.9536C15.9642 46.0454 16.0152 46.1422 16.0509 46.2442C16.0763 46.3207 16.0967 46.3972 16.1018 46.4787C16.1018 46.494 16.1018 46.5093 16.1069 46.5246C16.688 46.5195 17.2741 46.5093 17.8653 46.5042C17.8347 46.5552 17.8092 46.596 17.7837 46.6368C17.6155 46.8968 17.4474 47.1568 17.2792 47.4219C17.2639 47.4423 17.2486 47.4525 17.2231 47.4525C17.1008 47.4525 16.9785 47.4525 16.8561 47.4525C16.7593 47.4525 16.6625 47.4525 16.5605 47.4576C16.4433 47.4576 16.3261 47.4576 16.2089 47.4627C16.1681 47.4627 16.1324 47.4627 16.0916 47.4729C16.0865 47.5035 16.0815 47.5341 16.0764 47.5698C16.0611 47.6361 16.0509 47.7023 16.0356 47.7635C15.9846 47.9828 15.898 48.1867 15.7807 48.3804C15.5973 48.6812 15.3628 48.9311 15.0825 49.135C14.8175 49.3287 14.5321 49.4817 14.2263 49.5938C14.1192 49.6346 14.0122 49.6652 13.9052 49.7009C13.8236 49.7264 13.737 49.7519 13.6554 49.7723C13.5433 49.7978 13.4261 49.8233 13.3088 49.8437C13.2171 49.859 13.1254 49.8743 13.0387 49.8844C13.0285 49.8844 13.0183 49.8844 13.0031 49.8844C13.0132 49.8946 13.0183 49.9048 13.0234 49.9099C13.1967 50.1292 13.37 50.3535 13.5382 50.5727C13.7217 50.8073 13.9103 51.0469 14.0937 51.2814C14.2416 51.4751 14.3945 51.6638 14.5423 51.8575C14.7104 52.0717 14.8786 52.2858 15.0417 52.4999C15.2303 52.7395 15.4189 52.9792 15.6023 53.2188C15.7552 53.4125 15.9082 53.6063 16.0611 53.8051C16.2191 54.0039 16.3719 54.2028 16.5299 54.4016C16.5605 54.4373 16.586 54.4781 16.6166 54.5138C16.6217 54.5189 16.6268 54.5291 16.6268 54.5393H16.5452L16.535 54.524C16.5198 54.524 16.4994 54.5189 16.4841 54.5189C16.3006 54.5189 16.1171 54.5189 15.9387 54.5189C15.9336 54.5189 15.9235 54.5189 15.9184 54.5189C15.9184 54.5189 15.9184 54.524 15.9184 54.5291C15.9286 54.5291 15.9387 54.5291 15.9438 54.5291C16.1222 54.5291 16.3057 54.5291 16.4841 54.5291C16.4943 54.5291 16.5045 54.5342 16.5147 54.5393H15.0468V54.5495Z"
      fill="#3E1E1E"
    />
  </g>
  <g opacity="0.15">
    <path
      d="M19.5838 34.6236C19.4615 34.4706 19.3392 34.3126 19.2169 34.1596C18.9926 33.8741 18.7633 33.5937 18.539 33.3082C18.4014 33.1348 18.2638 32.9666 18.1262 32.7932C17.9529 32.574 17.7745 32.3548 17.6012 32.1305C17.4534 31.9418 17.3005 31.7583 17.1527 31.5696C16.9081 31.2586 16.6634 30.9527 16.4137 30.6417C16.2761 30.4684 16.1385 30.3001 16.0009 30.1268C15.9397 30.0503 15.8785 29.9687 15.8123 29.8923C15.7868 29.8617 15.8021 29.826 15.797 29.7903C15.797 29.7597 15.797 29.7342 15.797 29.7036C15.797 29.6424 15.797 29.5864 15.797 29.5252C15.797 29.4487 15.797 29.3722 15.8021 29.2958C15.8021 29.2193 15.8021 29.1428 15.8072 29.0663C15.8072 29.0255 15.8123 28.9848 15.8174 28.9338C15.8327 28.9338 15.848 28.9338 15.8632 28.9338C15.9448 28.9389 16.0263 28.9491 16.1079 28.9491C16.2149 28.9491 16.3169 28.9542 16.4239 28.9542C16.5768 28.9542 16.7246 28.9542 16.8775 28.9542C16.9692 28.9542 17.0559 28.944 17.1476 28.9389C17.2597 28.9287 17.3719 28.9134 17.484 28.8981C17.6624 28.8726 17.8408 28.8318 18.009 28.7706C18.2995 28.6687 18.5594 28.5157 18.7735 28.2914C18.9722 28.0823 19.1047 27.8376 19.1914 27.5674C19.2322 27.4501 19.2576 27.3278 19.2882 27.2105C19.2882 27.2054 19.2882 27.2003 19.2882 27.1901C18.0293 27.185 16.7755 27.1748 15.5116 27.1697C15.5116 27.1595 15.5116 27.1544 15.5167 27.1544C15.7002 26.8434 15.8836 26.5375 16.0722 26.2265C16.0875 26.201 16.0977 26.1602 16.1232 26.15C16.1538 26.1348 16.1894 26.145 16.2251 26.145C16.3474 26.145 16.4697 26.145 16.5921 26.145C16.7195 26.145 16.852 26.145 16.9794 26.15C17.0712 26.15 17.1578 26.15 17.2496 26.15C17.3668 26.15 17.4789 26.15 17.5961 26.15C17.7592 26.15 17.9223 26.15 18.0905 26.1551C18.2281 26.1551 18.3657 26.1551 18.5033 26.1602C18.5696 26.1602 18.6307 26.1602 18.697 26.1602C18.8346 26.1602 18.9773 26.1602 19.1149 26.1653C19.12 26.1653 19.1302 26.1653 19.1404 26.1653C19.1353 26.15 19.1302 26.1348 19.12 26.1246C18.9773 25.8594 18.7683 25.6555 18.5033 25.5128C18.3759 25.4414 18.2383 25.3853 18.0956 25.3496C17.9784 25.319 17.8611 25.2884 17.7439 25.268C17.6471 25.2476 17.5502 25.2323 17.4483 25.217C17.3922 25.2068 17.3362 25.2068 17.2801 25.2017C17.2037 25.1967 17.1272 25.1865 17.0508 25.1814C17.01 25.1814 16.9692 25.1814 16.9285 25.1763C16.8622 25.1763 16.7959 25.1712 16.7297 25.1661C16.7144 25.1661 16.694 25.1661 16.6787 25.1661C16.4188 25.1661 16.1589 25.1661 15.8938 25.161C15.8225 25.161 15.7511 25.161 15.6798 25.1661C15.6033 25.1661 15.532 25.1712 15.4555 25.1763C15.4555 25.1763 15.4453 25.1763 15.4453 25.1712C15.6339 24.8907 15.8225 24.6103 16.0161 24.3299C16.0467 24.284 16.0773 24.2382 16.1079 24.1923C16.113 24.1821 16.1334 24.1719 16.1436 24.1719C16.2914 24.1719 16.4392 24.1719 16.5921 24.1719C17.9529 24.1719 19.3137 24.1719 20.6796 24.1719C21.2861 24.1719 21.8926 24.1719 22.5042 24.1719C22.5144 24.1719 22.5195 24.1719 22.5348 24.1719C22.5246 24.1872 22.5195 24.1974 22.5144 24.2076C22.3819 24.4166 22.2443 24.6307 22.1118 24.8398C22.0506 24.9366 21.9844 25.0335 21.9283 25.1304C21.913 25.1559 21.8926 25.1661 21.862 25.1661C21.3065 25.1661 20.7561 25.1661 20.2005 25.1661C20.1801 25.1661 20.1597 25.1661 20.1343 25.1661C20.1343 25.1661 20.1343 25.1661 20.1292 25.1661C20.1292 25.1661 20.1292 25.1661 20.1343 25.1661C20.2719 25.3037 20.384 25.4618 20.4859 25.6249C20.5471 25.7218 20.5981 25.8238 20.6337 25.9308C20.6592 26.0124 20.6847 26.0889 20.6847 26.1755C20.6847 26.1908 20.6847 26.2061 20.6949 26.2265C21.3065 26.2214 21.913 26.2112 22.5348 26.2061C22.5042 26.2571 22.4736 26.2979 22.4481 26.3438C22.2698 26.6191 22.0965 26.8893 21.9181 27.1646C21.9028 27.185 21.8875 27.1952 21.862 27.1952C21.7346 27.1952 21.6072 27.1952 21.4798 27.2003C21.3779 27.2003 21.2759 27.2003 21.174 27.2054C21.0517 27.2054 20.9293 27.2054 20.8019 27.2105C20.7612 27.2105 20.7204 27.2156 20.6796 27.2207C20.6745 27.2513 20.6694 27.287 20.6592 27.3176C20.6439 27.3839 20.6337 27.4552 20.6185 27.5215C20.5624 27.7509 20.4757 27.9651 20.3534 28.169C20.1648 28.4851 19.9151 28.7451 19.6195 28.9593C19.3443 29.1632 19.0436 29.3212 18.7225 29.4385C18.6103 29.4793 18.4982 29.515 18.3861 29.5456C18.2995 29.5711 18.2128 29.5966 18.1211 29.617C17.9987 29.6475 17.8815 29.6679 17.7592 29.6934C17.6675 29.7087 17.5706 29.724 17.4738 29.7393C17.4636 29.7393 17.4534 29.7393 17.4381 29.7393C17.4483 29.7546 17.4534 29.7597 17.4585 29.7699C17.6369 29.9993 17.8204 30.2339 17.9988 30.4633C18.1924 30.7131 18.3861 30.9578 18.5798 31.2025C18.7378 31.4014 18.8958 31.6053 19.0487 31.8042C19.222 32.0285 19.4004 32.2528 19.5736 32.4771C19.7673 32.727 19.9661 32.9768 20.1597 33.2317C20.3177 33.4356 20.4808 33.6396 20.6388 33.8435C20.8019 34.0525 20.965 34.2616 21.1281 34.4706C21.1587 34.5114 21.1893 34.5471 21.2199 34.5879C21.225 34.5981 21.2301 34.6083 21.2301 34.6134H21.1485C21.1485 34.6134 21.1383 34.5981 21.1332 34.5981C21.1179 34.5981 21.0975 34.593 21.0771 34.593C20.8886 34.593 20.6949 34.593 20.5063 34.593C20.5012 34.593 20.491 34.593 20.4859 34.593C20.4859 34.593 20.4859 34.5981 20.4859 34.6032C20.4961 34.6032 20.5063 34.6032 20.5165 34.6032C20.7051 34.6032 20.8937 34.6032 21.0822 34.6032C21.0924 34.6032 21.1026 34.6083 21.1128 34.6134H19.5787L19.5838 34.6236Z"
      fill="#3E1E1E"
    />
  </g>
</svg>
