<svg width="74" height="74" viewBox="0 0 74 74" fill="none" xmlns="http://www.w3.org/2000/svg">
<rect x="16.0333" y="18.5" width="41.9333" height="33.3" fill="#5B64A5"/>
<path d="M65.3545 31.5549V31.5136C65.2066 25.6264 64.5895 20.3216 63.6243 16.5688L63.5835 16.3721L63.5185 16.1579C62.779 13.8481 60.5593 13.0026 59.612 12.6419C53.4056 10.2794 46.0975 7.55378 38.9437 5.24398C38.361 5.06245 37.7557 4.96045 37.1448 4.94085L36.9994 4.93333H36.8528C36.2467 4.95368 35.6462 5.05482 35.0679 5.23396C27.9064 7.55378 20.5971 10.2794 14.3893 12.6431C13.442 13.0039 11.2249 13.8494 10.4803 16.1579L10.4115 16.3721L10.3745 16.555V16.5775C9.40806 20.3203 8.79353 25.6251 8.64564 31.5136V31.5549C8.52579 39.6392 9.31116 43.5799 9.80075 45.2259L9.86704 45.4588C10.6511 47.9315 12.0893 50.4692 14.1458 53.012C16.3387 55.7202 19.2456 58.4759 22.7938 61.1991C28.6994 65.7523 34.1601 68.3903 34.2149 68.4166L34.3029 68.4579H34.3156C35.1522 68.8566 36.0696 69.0647 36.9994 69.0667C37.9337 69.0671 38.856 68.8598 39.6972 68.4604L39.7839 68.4191L39.8311 68.3965C43.8392 66.3524 47.6444 63.9453 51.1973 61.2066C54.7468 58.4784 57.6601 55.7227 59.8543 53.0133C61.9095 50.4743 63.3477 47.934 64.1318 45.4613L64.1764 45.3185L64.1981 45.2284C64.6864 43.5849 65.4743 39.648 65.3545 31.5549ZM36.8515 20.9491C38.2636 20.9491 39.644 21.3605 40.8182 22.1313C41.9923 22.9021 42.9074 23.9976 43.4478 25.2793C43.9882 26.5611 44.1296 27.9715 43.8541 29.3322C43.5786 30.6929 42.8986 31.9428 41.9001 32.9238C40.9016 33.9048 39.6294 34.5729 38.2444 34.8435C36.8594 35.1142 35.4239 34.9753 34.1192 34.4443C32.8146 33.9134 31.6995 33.0143 30.915 31.8608C30.1305 30.7073 29.7118 29.3511 29.7118 27.9637C29.7118 26.1033 30.464 24.3191 31.8029 23.0037C33.1419 21.6882 34.9579 20.9491 36.8515 20.9491ZM48.7596 45.5177V45.5478C48.6391 46.5809 48.198 47.5526 47.4961 48.3311C46.8037 49.121 45.8715 49.6716 44.8366 49.9018C43.364 50.23 39.6921 50.5519 37.401 50.5369C35.1061 50.592 30.6068 50.2425 29.1355 49.8993C28.1004 49.6662 27.1689 49.1124 26.4785 48.3198C25.7771 47.5415 25.3361 46.5704 25.215 45.5377V45.5064C25.1375 44.7612 25.1132 44.0116 25.1423 43.263C25.1129 42.6425 25.1368 42.0207 25.2137 41.4042V41.3741C25.3198 40.3908 25.7674 39.4734 26.481 38.7762C27.1981 38.0715 28.1377 37.6271 29.1457 37.5161C30.6221 37.362 35.1137 37.2781 37.3972 37.2793C39.6806 37.2806 43.3436 37.362 44.82 37.5161C45.8283 37.6267 46.7682 38.0716 47.4847 38.7774C48.2009 39.4768 48.6499 40.3974 48.7558 41.3841V41.4142C48.8297 42.0278 48.8676 42.6451 48.8693 43.263C48.873 44.016 48.8364 44.7686 48.7596 45.5177Z" fill="#BAD8FD"/>
<g clip-path="url(#clip0_652_19522)">
<circle cx="56.61" cy="54.39" r="12.21" fill="#EEAA21"/>
<path d="M56.61 55.3251C55.9089 55.3251 55.3403 55.8934 55.3403 56.5948C55.3403 57.065 55.5966 57.4745 55.9766 57.6941V59.1057H57.2434V57.6941C57.6233 57.4746 57.8797 57.065 57.8797 56.5948C57.8797 55.8934 57.3112 55.3251 56.61 55.3251Z" fill="white"/>
<path d="M56.6105 49.1682C55.5432 49.1682 54.6752 50.0364 54.6752 51.1035V53.1645H58.5456V51.1035C58.5456 50.0365 57.6775 49.1682 56.6105 49.1682Z" fill="white"/>
<path d="M56.6098 42.1802C49.8666 42.1802 44.4 47.6469 44.4 54.3901C44.4 61.1332 49.8666 66.6001 56.6098 66.6001C63.353 66.6001 68.82 61.1331 68.82 54.3901C68.82 47.6469 63.353 42.1802 56.6098 42.1802ZM60.3616 60.6678H52.8586C52.0662 60.6678 51.4238 60.0254 51.4238 59.2328V54.5995C51.4238 53.9083 51.9128 53.3311 52.5637 53.1953V51.1036C52.5637 48.8724 54.3789 47.057 56.6102 47.057C58.8414 47.057 60.6566 48.8723 60.6566 51.1036V53.1953C61.3072 53.3315 61.7962 53.9083 61.7962 54.5995V59.2328H61.7964C61.7964 60.0253 61.154 60.6678 60.3616 60.6678Z" fill="white"/>
</g>
<defs>
<clipPath id="clip0_652_19522">
<rect width="24.42" height="24.42" fill="white" transform="translate(44.4 42.18)"/>
</clipPath>
</defs>
</svg>
