<svg
  width="88"
  height="88"
  viewBox="0 0 88 88"
  fill="none"
  xmlns="http://www.w3.org/2000/svg"
>
  <path
    fillRule="evenodd"
    clipRule="evenodd"
    d="M47.0629 71H87.9928C90.7571 71 93 73.1186 93 75.7298V83.1514C93 85.7625 90.7616 87.8769 87.9973 87.8811C75.3758 87.8939 62.7454 87.9321 50.07 88L47 87.9915L47.045 75.8784H47.0584V71.0085L47.0629 71Z"
    fill="#D8C9EE"
  />
  <path
    fillRule="evenodd"
    clipRule="evenodd"
    d="M9.1579 87.8434C10.5899 87.8434 12.208 87.8523 13.8927 87.8434C17.7098 87.8212 21.5624 88.0127 25.3706 87.9993V81.1438C25.3706 78.7963 27.1306 76.7828 29.4581 76.5913C32.0693 76.3774 34.2771 78.4711 34.2771 81.0503V87.9771C36.8529 87.9771 39.4242 87.9682 42 87.9682V69.4818C42 67.5263 40.967 65.7177 39.2868 64.7288L10.3283 47.6769C7.08753 45.7703 3.00886 48.1179 3.00886 51.8909V86.8322L3 87.8434H9.1579Z"
    fill="#C5C1E6"
  />
  <path
    fillRule="evenodd"
    clipRule="evenodd"
    d="M14.9514 52.5656L7.02766 39.5219C6.04326 38.0017 4.33932 37 2.397 37C1.54062 37 0.723955 37.1994 0 37.5496C1.03737 37.7535 1.80547 38.6665 1.80547 39.7612C1.80547 40.1424 1.73926 40.3152 1.63773 40.6609C1.46557 41.2504 1.3817 41.8753 1.3817 42.5224C1.3817 45.7047 3.65509 48.3596 6.65686 48.9313C7.1601 49.0288 7.66333 49.0554 8.1754 49.1573C10.6828 49.6626 12.8944 51.0011 14.5056 52.867C14.5497 52.9468 14.638 53 14.7351 53C14.8808 53 15 52.8803 15 52.7341C15 52.672 14.9823 52.6188 14.947 52.5701"
    fill="#5B64A5"
  />
  <path
    fillRule="evenodd"
    clipRule="evenodd"
    d="M26.0486 68.5656L33.9723 55.5219C34.9567 54.0017 36.6607 53 38.603 53C39.4594 53 40.276 53.1994 41 53.5496C39.9626 53.7535 39.1945 54.6665 39.1945 55.7612C39.1945 56.1424 39.2607 56.3152 39.3623 56.6609C39.5344 57.2504 39.6183 57.8753 39.6183 58.5224C39.6183 61.7047 37.3449 64.3596 34.3431 64.9313C33.8399 65.0288 33.3367 65.0554 32.8246 65.1573C30.3172 65.6626 28.1056 67.0011 26.4944 68.867C26.4503 68.9468 26.362 69 26.2649 69C26.1192 69 26 68.8803 26 68.7341C26 68.672 26.0177 68.6188 26.053 68.5701"
    fill="#5385C3"
  />
  <path
    fillRule="evenodd"
    clipRule="evenodd"
    d="M81.5857 47.9085L66.9562 38.2853C66.2831 37.9049 65.4529 37.9049 64.7797 38.2853L49.4502 48.3064C47.9603 49.1458 47.0404 50.6936 47.0359 52.3725L47 66.4423C47 67.8545 48.1713 69 49.6163 69H66.7049V62.6472C66.7049 60.5092 68.3339 58.6554 70.5193 58.4455C73.0324 58.205 75.1685 60.1463 75.1685 62.551V69H80.8632C82.5729 69 83.9596 67.6534 83.9641 65.9832L84 51.9965C84 50.3088 83.0845 48.7523 81.5857 47.9085Z"
    fill="#5385C3"
  />
  <path
    fillRule="evenodd"
    clipRule="evenodd"
    d="M65.066 48.6193L72.9997 38.6308C73.9756 37.4744 75.487 36.8248 77.0846 37.0413C77.7927 37.1381 78.4417 37.3915 79 37.7601C78.124 37.8153 77.3933 38.488 77.2753 39.4002C77.2344 39.7181 77.2753 39.8702 77.3161 40.165C77.3933 40.6764 77.3978 41.2063 77.3252 41.7453C76.9802 44.3945 74.8243 46.3525 72.2872 46.5C71.8605 46.523 71.4475 46.4908 71.0118 46.5184C68.8921 46.6612 66.9269 47.5366 65.3973 48.9142C65.3519 48.9741 65.2747 49.0109 65.193 48.9971C65.0705 48.9787 64.9843 48.8681 65.0024 48.7437C65.007 48.693 65.0296 48.6469 65.0614 48.6147"
    fill="#D7A434"
  />
</svg>
